# xmcd
#
# Track frame offsets:
#	150
#	16762
#	25817
#	35507
#	46187
#	56307
#	68570
#	80870
#	92477
#	108497
#	119817
#	136095
#	146317
#	161110
#
# Disc length: 2323 seconds
#
# Revision: 1
# Processed by: cddbd v1.5.1PL2 Copyright (c) Steve Scherf et al.
# Submitted via: audiograbber 1.83.01
#
DISCID=b209110e
DTITLE=Bobby Darin - Bobby Darin
DYEAR=1900
DGENRE=Pop
TTITLE0=Mack The Knife
TTITLE1=Dream Lover
TTITLE2=Splish Splash
TTITLE3=If I Were A Carpenter
TTITLE4=Qeen Of The Hop
TTITLE5=Early In The Morning
TTITLE6=Plain Jane
TTITLE7=Girl Who Stood Deside
TTITLE8=Funny What Love
TTITLE9=A Quarter To Nine
TTITLE10=Once Upon A Time
TTITLE11=I Whis I Were In Love Again
TTITLE12=Me And Mr. Honner
TTITLE13=Sugar Man
EXTD=
EXTT0=
EXTT1=
EXTT2=
EXTT3=
EXTT4=
EXTT5=
EXTT6=
EXTT7=
EXTT8=
EXTT9=
EXTT10=
EXTT11=
EXTT12=
EXTT13=
PLAYORDER=
